<svg xmlns="http://www.w3.org/2000/svg" width="159.884" height="160.193" viewBox="0 0 159.884 160.193">
  <g id="Group_27" data-name="Group 27" transform="translate(-831.97 -255.337)">
    <path id="Icon_map-map-pin" data-name="Icon map-map-pin" d="M20.989,0C10.606,0,.034,8.258.034,18.441-.976,37.515,20.989,54.476,20.989,54.476S41.48,37.517,41.946,18.441C41.946,8.258,31.368,0,20.989,0Z" transform="matrix(0.719, 0.695, -0.695, 0.719, 915.746, 301.271)" opacity="0.3"/>
    <path id="Icon_map-map-pin-2" data-name="Icon map-map-pin" d="M33.834,1.728c-13.862,0-27.977,11.025-27.977,24.62C4.51,51.812,33.834,74.456,33.834,74.456S61.19,51.815,61.812,26.348c0-13.6-14.122-24.62-27.978-24.62Z" transform="translate(858.908 281.943)" fill="#fff" stroke="#d3d3d3" stroke-width="1"/>
    <g id="tank" transform="translate(874.203 292.398)">
      <g id="g905" transform="translate(9.43 21.917)">
        <g id="g903">
          <path id="path901" d="M130.259,296.6H128.9a.637.637,0,1,0,0,1.275h1.363a.637.637,0,0,0,0-1.275Z" transform="translate(-128.259 -296.597)" fill="#1eac1d"/>
        </g>
      </g>
      <g id="g911" transform="translate(9.43 24.286)">
        <g id="g909">
          <path id="path907" d="M130.259,328.662H128.9a.637.637,0,1,0,0,1.275h1.363a.637.637,0,0,0,0-1.275Z" transform="translate(-128.259 -328.662)" fill="#1eac1d"/>
        </g>
      </g>
      <g id="g917" transform="translate(12.966 21.917)">
        <g id="g915">
          <path id="path913" d="M178.355,296.6h-1.363a.637.637,0,1,0,0,1.275h1.363a.637.637,0,1,0,0-1.275Z" transform="translate(-176.355 -296.597)" fill="#1eac1d"/>
        </g>
      </g>
      <g id="g923" transform="translate(12.966 24.286)">
        <g id="g921">
          <path id="path919" d="M178.355,328.662h-1.363a.637.637,0,1,0,0,1.275h1.363a.637.637,0,1,0,0-1.275Z" transform="translate(-176.355 -328.662)" fill="#1eac1d"/>
        </g>
      </g>
      <g id="g929" transform="translate(16.502 21.917)">
        <g id="g927">
          <path id="path925" d="M226.452,296.6h-1.363a.637.637,0,1,0,0,1.275h1.363a.637.637,0,1,0,0-1.275Z" transform="translate(-224.452 -296.597)" fill="#1eac1d"/>
        </g>
      </g>
      <g id="g935" transform="translate(16.502 24.286)">
        <g id="g933">
          <path id="path931" d="M226.452,328.662h-1.363a.637.637,0,1,0,0,1.275h1.363a.637.637,0,1,0,0-1.275Z" transform="translate(-224.452 -328.662)" fill="#1eac1d"/>
        </g>
      </g>
      <g id="g941">
        <g id="g939">
          <path id="path937" d="M36.822,25.677a.1.1,0,0,1-.012-.047V21.936h.633A.557.557,0,0,0,37.73,20.9l-8.924-5.355a.557.557,0,0,0-.843.477v2.418H24.949a.557.557,0,0,0-.557.557v1.823h-1.37L21.4,5.277a.556.556,0,0,0-.023-1.112h-.633V2.342a.557.557,0,0,0-.557-.557h-.633V.557a.557.557,0,1,0-1.113,0V1.785H17.81a.557.557,0,0,0-.557.557V4.165H16.62A.556.556,0,0,0,16.6,5.277l-.431,4.147a.557.557,0,1,0,1.107.115l.3-2.86,2.908,5.816H16.967l.06-.576a.557.557,0,1,0-1.107-.115l-.814,7.83h-.9V16.025a.557.557,0,1,0-1.113,0v3.608H11.822V18.405a.557.557,0,0,0-1.113,0v1.228H7.7a.557.557,0,0,0-.557.557v1.823H.557A.557.557,0,0,0,0,22.57v1.785a.557.557,0,0,0,.51.555l6.629.552v1.311H5.911a.557.557,0,0,0-.557.557v2.38a.557.557,0,0,0,.557.557H8.329v6.553a1.283,1.283,0,0,1-.439.068,1.374,1.374,0,0,1-1.025-.461,2.464,2.464,0,0,0-3.5,0,1.371,1.371,0,0,1-1.024.461.557.557,0,1,0,0,1.113,2.443,2.443,0,0,0,1.749-.729,1.37,1.37,0,0,1,2.049,0,2.464,2.464,0,0,0,3.5,0,1.37,1.37,0,0,1,2.05,0,2.465,2.465,0,0,0,3.5,0,1.372,1.372,0,0,1,2.052,0,2.466,2.466,0,0,0,3.5,0,1.372,1.372,0,0,1,2.051,0,2.466,2.466,0,0,0,3.5,0,1.373,1.373,0,0,1,2.053,0,2.47,2.47,0,0,0,3.5,0,1.377,1.377,0,0,1,2.056,0A2.45,2.45,0,0,0,35.658,38a.557.557,0,0,0,0-1.113,1.379,1.379,0,0,1-1.028-.461,2.471,2.471,0,0,0-3.5,0,1.379,1.379,0,0,1-1.028.461,1.3,1.3,0,0,1-.427-.064V30.266h2.418a.557.557,0,0,0,.557-.557v-2.38a.557.557,0,0,0-.557-.557H30.266V21.936H35.7v3.694a1.141,1.141,0,0,0,.758,1.1.633.633,0,1,1-.834.6.557.557,0,1,0-1.113,0,1.747,1.747,0,1,0,2.315-1.652ZM25.506,19.557h2.456v1.266H25.506ZM18.367,2.9h1.266V4.165H18.367V2.9Zm-.251,2.38h2.167l.571,5.477Zm3.036,8.329.615,5.9-4.084-5.9h3.469Zm-4.369.656,3.718,5.37H16.225Zm-8.53,6.483H20.228v6.026H8.253Zm-7.139,3.1v-.716H7.139v1.218ZM11.9,36.033a2.437,2.437,0,0,0-2.456-.008V30.266H11.9Zm2.566.393a1.375,1.375,0,0,1-1.026.461,1.3,1.3,0,0,1-.427-.064V33.316l2.763,2.417A2.565,2.565,0,0,0,14.465,36.426Zm2.194-1.4-2.721-2.381h2.721Zm0-3.495H13.012V30.266h3.646Zm3.57,4.717c-.074.059-.144.119-.211.176a1.372,1.372,0,0,1-2.052,0c-.062-.053-.126-.108-.194-.163v0s0-.005,0-.008V30.266h2.456Zm1.113-1.223V32.646h2.721Zm3.646,1.79a1.282,1.282,0,0,1-.444.07,1.374,1.374,0,0,1-1.025-.461,2.571,2.571,0,0,0-1.3-.691l2.765-2.419v3.5Zm0-5.285H21.341V30.266h3.646ZM27.319,35.7a2.258,2.258,0,0,0-1.218.326V30.266h2.456v5.768A2.26,2.26,0,0,0,27.319,35.7Zm4.213-7.811v1.267H6.468V27.886H26.139a.557.557,0,0,0,0-1.113h-4.8V21.936h7.811v4.836h-.633a.557.557,0,1,0,0,1.113Zm-2.456-7.063V17.008l6.358,3.815Z" fill="#1eac1d"/>
        </g>
      </g>
    </g>
  </g>
</svg>
