<svg xmlns="http://www.w3.org/2000/svg" width="57.002" height="73.868" viewBox="0 0 57.002 73.868">
  <g id="Group_30" data-name="Group 30" transform="translate(-2216.498 -815.5)">
    <path id="Icon_map-map-pin" data-name="Icon map-map-pin" d="M33.834,1.728c-13.862,0-27.977,11.025-27.977,24.62C4.51,51.812,33.834,74.456,33.834,74.456S61.19,51.815,61.812,26.348c0-13.6-14.122-24.62-27.978-24.62Z" transform="translate(2211.188 814.272)" fill="#fff" stroke="#d3d3d3" stroke-width="1"/>
    <g id="hydro-power" transform="translate(2220.201 822.995)">
      <g id="g66" transform="translate(11.319 7.848)">
        <g id="g64" transform="translate(0)">
          <rect id="rect62" width="27.616" height="1.513" fill="#1eac1d"/>
        </g>
      </g>
      <g id="g72" transform="translate(7.009 3.41)">
        <g id="g70" transform="translate(0 0)">
          <path id="path68" d="M34.417,84.032a2.666,2.666,0,0,0-1.695-1.025v-26.1h1.819V82.071h1.091V55.6h-4V83.13a3.126,3.126,0,0,0-1.183.9,1.572,1.572,0,0,1-1.255.707,1.342,1.342,0,0,1-.454-.072L26.948,72.138H29.71V70.826H26.76l-.095-.661a2.387,2.387,0,0,0-2.2-2.227,2.388,2.388,0,0,0-2.2,2.227l-.095.661h-.873V65.838h6.326v3.719h1.091V64.525H20.216v6.3h-1.05v1.313h2.826L20.412,83.186a2.205,2.205,0,0,0-.936-.2,2.549,2.549,0,0,0-1.984,1.043,1.571,1.571,0,0,1-1.255.707,1.334,1.334,0,0,1-1.041-.481L13.463,72.138H16.33V70.826H15.271v-6.3H6.763v5.032H7.853V65.838H14.18v4.988h-.9l-.094-.661a2.387,2.387,0,0,0-2.2-2.227,2.388,2.388,0,0,0-2.2,2.227l-.094.661H5.713v1.313H8.507L6.95,83.028a2.4,2.4,0,0,0-.431-.039,2.55,2.55,0,0,0-1.984,1.043,3.187,3.187,0,0,1-.535.5V55.6H0V80.758H1.091V56.912H2.91V84.693a1.913,1.913,0,0,1-.885-.661A2.549,2.549,0,0,0,.041,82.989V84.3a1.571,1.571,0,0,1,1.255.707A2.549,2.549,0,0,0,3.28,86.052a2.549,2.549,0,0,0,1.984-1.043A1.572,1.572,0,0,1,6.519,84.3a1.571,1.571,0,0,1,1.255.707,2.55,2.55,0,0,0,1.984,1.043,2.549,2.549,0,0,0,1.984-1.043A1.571,1.571,0,0,1,13,84.3a1.483,1.483,0,0,1,1.188.635l.006.045.03-.006.031.033a2.408,2.408,0,0,0,3.968,0,1.468,1.468,0,0,1,2.51,0,2.408,2.408,0,0,0,3.968,0,1.468,1.468,0,0,1,2.51,0,2.409,2.409,0,0,0,3.968,0,1.468,1.468,0,0,1,2.511,0,2.55,2.55,0,0,0,1.984,1.043V84.74a1.572,1.572,0,0,1-1.255-.707ZM13,82.989a2.549,2.549,0,0,0-1.984,1.043,1.571,1.571,0,0,1-1.255.707A1.572,1.572,0,0,1,8.5,84.033a5.4,5.4,0,0,0-.517-.508L9.864,70.387a1.219,1.219,0,0,1,1.121-1.137,1.219,1.219,0,0,1,1.121,1.137l1.83,12.8A2.209,2.209,0,0,0,13,82.989Zm12.957,0a2.55,2.55,0,0,0-1.984,1.043,1.468,1.468,0,0,1-2.51,0l-.054-.058,1.943-13.588a1.121,1.121,0,1,1,2.242,0L27.476,83.57a2.213,2.213,0,0,0-1.521-.581Z" transform="translate(0 -55.599)" fill="#1eac1d"/>
        </g>
      </g>
      <g id="g78" transform="translate(11.879 35.881)">
        <g id="g76" transform="translate(0)">
          <path id="path74" d="M94.38,524.142a2.246,2.246,0,0,0-3.977,0c-.381.473-.656.815-1.258.815s-.877-.342-1.258-.815a2.246,2.246,0,0,0-3.977,0c-.381.473-.656.815-1.258.815s-.877-.342-1.258-.815a2.246,2.246,0,0,0-3.977,0c-.381.473-.656.815-1.258.815s-.877-.342-1.258-.815a2.246,2.246,0,0,0-3.977,0c-.381.473-.656.815-1.258.815v1.513a2.489,2.489,0,0,0,1.989-1.2c.381-.473.656-.815,1.258-.815s.877.342,1.258.815a2.246,2.246,0,0,0,3.977,0c.381-.473.656-.815,1.258-.815s.877.342,1.258.815a2.246,2.246,0,0,0,3.977,0c.381-.473.656-.815,1.258-.815s.877.342,1.258.815a2.246,2.246,0,0,0,3.977,0c.381-.473.656-.815,1.258-.815s.877.342,1.258.815a2.489,2.489,0,0,0,1.989,1.2v-1.513C95.036,524.957,94.761,524.615,94.38,524.142Z" transform="translate(-69.665 -522.94)" fill="#1eac1d"/>
        </g>
      </g>
    </g>
  </g>
</svg>
