<svg xmlns="http://www.w3.org/2000/svg" width="159.884" height="160.193" viewBox="0 0 159.884 160.193">
  <g id="Group_26" data-name="Group 26" transform="translate(-284.478 -87.698)">
    <path id="Icon_map-map-pin" data-name="Icon map-map-pin" d="M20.989,0C10.606,0,.034,8.258.034,18.441-.976,37.515,20.989,54.476,20.989,54.476S41.48,37.517,41.946,18.441C41.946,8.258,31.368,0,20.989,0Z" transform="matrix(0.719, 0.695, -0.695, 0.719, 368.254, 133.632)" opacity="0.3"/>
    <path id="Icon_map-map-pin-2" data-name="Icon map-map-pin" d="M33.834,1.728c-13.862,0-27.977,11.025-27.977,24.62C4.51,51.812,33.834,74.456,33.834,74.456S61.19,51.815,61.812,26.348c0-13.6-14.122-24.62-27.978-24.62Z" transform="translate(313.107 114.304)" fill="#fff" stroke="#d3d3d3" stroke-width="1"/>
    <g id="g1322" transform="translate(329.42 127.515)">
      <path id="path1316" d="M113.716,289.6H111.83a1.746,1.746,0,0,0-.325-.564l.943-1.632a.594.594,0,0,0-.218-.812,4.175,4.175,0,0,0-4.159,0,.594.594,0,0,0-.218.812l.943,1.633a1.792,1.792,0,0,0-.325.563h-1.886a.594.594,0,0,0-.594.594,4.165,4.165,0,0,0,2.081,3.6.594.594,0,0,0,.811-.218l.943-1.634a1.765,1.765,0,0,0,.65,0l.943,1.633a.594.594,0,0,0,.812.218,4.174,4.174,0,0,0,2.08-3.6.594.594,0,0,0-.594-.595Zm-5.536,2.819a2.984,2.984,0,0,1-.941-1.631h1.232a1.747,1.747,0,0,0,.325.564Zm2.268-1.71a.594.594,0,1,1,.217-.812A.595.595,0,0,1,110.448,290.714Zm.028-2.266a1.8,1.8,0,0,0-.65,0l-.615-1.066a2.991,2.991,0,0,1,1.881,0Zm1.645,3.975-.615-1.066a1.787,1.787,0,0,0,.325-.564h1.231A2.989,2.989,0,0,1,112.12,292.423Z" transform="translate(-98.389 -265.601)" fill="#1eac1d"/>
      <path id="path1318" d="M34.316,14.082h-.684V10.664a.684.684,0,0,0-1.367,0v3.418H30.9V12.031a.684.684,0,0,0-1.367,0v2.051h-.684a.684.684,0,0,0-.684.684v4.785H26.113a.684.684,0,0,0-.684.684v2.488a8.925,8.925,0,0,0-.916.118,12.262,12.262,0,0,1-.451-2.619,9.462,9.462,0,0,1,.114-1.25,17.615,17.615,0,0,1,.638-2.631.684.684,0,0,0-.652-.891H19.02c.148-.771.3-1.441.4-1.854a2.059,2.059,0,0,0,1.392-1.326,4.764,4.764,0,0,0,3.025-1.6,2.733,2.733,0,0,0,3.625-1.24A3.418,3.418,0,1,0,27.371,2.9,4.788,4.788,0,0,0,19.1,1.972,4.928,4.928,0,0,1,15.123,4.1H12.714A4.1,4.1,0,0,0,8.808,6.95a3.418,3.418,0,0,0-4.246,2.72,2.051,2.051,0,0,0,.13,3.939A20.248,20.248,0,0,1,5.879,18.88c.008.406-.257,2.031-2.87,8.343C1.555,30.735.075,34,.061,34.034A.684.684,0,0,0,.683,35H23.72a.684.684,0,1,0,0-1.367H18.593V32.266H33.632v1.367h-3.76a.684.684,0,0,0,0,1.367h4.443A.684.684,0,0,0,35,34.316V14.766a.684.684,0,0,0-.684-.684ZM23.247,16.816q-.194.709-.321,1.367h-4.3c.032-.413.085-.87.158-1.367Zm-.055,6.371a8.831,8.831,0,0,0-2.913,1.693,38.946,38.946,0,0,1-1.6-5.33H22.73c-.019.225-.031.441-.035.646a13.324,13.324,0,0,0,.5,2.991ZM7.929,8.2a2.046,2.046,0,0,1,1.035.28.684.684,0,0,0,1.027-.528,2.735,2.735,0,0,1,5.4-.3.684.684,0,0,0,1.34-.272,4.073,4.073,0,0,0-1-1.947A6.342,6.342,0,0,0,20.2,2.776a3.42,3.42,0,0,1,5.971.817,3.4,3.4,0,0,0-1.154,2.559.684.684,0,1,0,1.367,0,2.049,2.049,0,1,1,1.009,1.767.684.684,0,0,0-1.024.488,1.367,1.367,0,0,1-2.248.828.684.684,0,0,0-1.021.144,3.408,3.408,0,0,1-2.319,1.512A2.054,2.054,0,0,0,18.867,9.57H6A2.054,2.054,0,0,1,7.929,8.2ZM5.195,12.3a.684.684,0,0,1,0-1.367H18.867a.684.684,0,1,1,0,1.367ZM17.226,33.633H14.492v-.684a.684.684,0,0,1,.684-.684h2.051Zm.027-2.734H15.175a2.053,2.053,0,0,0-2.051,2.051v.684H1.738c.55-1.236,1.547-3.5,2.532-5.884,3.005-7.26,2.982-8.49,2.975-8.894a19.962,19.962,0,0,0-1.087-5.183H18a28.137,28.137,0,0,0-.771,5.184s0,.006,0,.008,0,0,0,0,0,0,0,.006c-.01,1.162.972,4.368,2,7.095a8.858,8.858,0,0,0-1.972,4.93Zm1.372,0a7.519,7.519,0,0,1,14.977,0ZM33.632,19.551h-.684a.684.684,0,1,0,0,1.367h.684v1.367h-.684a.684.684,0,1,0,0,1.367h.684v3.2a8.9,8.9,0,0,0-6.836-4.13v-1.8h2.051a.684.684,0,0,0,.684-.684V18.184h4.1Zm0-2.734h-4.1V15.449h4.1Z" transform="translate(0 0)" fill="#1eac1d"/>
      <circle id="circle1320" cx="0.57" cy="0.57" r="0.57" transform="translate(26.342 33.623)" fill="#1eac1d"/>
    </g>
  </g>
</svg>
