<?xml version="1.0" encoding="UTF-8" standalone="no"?>
<svg
   id="Capa_1"
   enable-background="new 0 0 512 512"
   height="512"
   viewBox="0 0 512 512"
   width="512"
   version="1.1"
   sodipodi:docname="nuclear-plant.svg"
   inkscape:version="1.1 (c68e22c387, 2021-05-23)"
   xmlns:inkscape="http://www.inkscape.org/namespaces/inkscape"
   xmlns:sodipodi="http://sodipodi.sourceforge.net/DTD/sodipodi-0.dtd"
   xmlns="http://www.w3.org/2000/svg"
   xmlns:svg="http://www.w3.org/2000/svg">
  <defs
     id="defs1327" />
  <sodipodi:namedview
     id="namedview1325"
     pagecolor="#ffffff"
     bordercolor="#666666"
     borderopacity="1.0"
     inkscape:pageshadow="2"
     inkscape:pageopacity="0.0"
     inkscape:pagecheckerboard="0"
     showgrid="false"
     inkscape:zoom="0.76464844"
     inkscape:cx="-45.118774"
     inkscape:cy="302.75351"
     inkscape:window-width="1920"
     inkscape:window-height="1001"
     inkscape:window-x="-9"
     inkscape:window-y="-9"
     inkscape:window-maximized="1"
     inkscape:current-layer="Capa_1" />
  <g
     id="g1322"
     style="fill:#b22222;fill-opacity:1">
    <path
       d="m236 346h-31.73c-.609-1.723-1.366-3.396-2.284-4.991-.924-1.604-1.998-3.105-3.19-4.5l15.864-27.468c1.328-2.298 1.688-5.03.999-7.593s-2.367-4.748-4.667-6.073c-21.605-12.445-48.424-12.445-69.99.004-2.297 1.326-3.974 3.51-4.66 6.072-.687 2.562-.327 5.292.999 7.589l15.866 27.48c-2.386 2.798-4.242 6.013-5.472 9.48h-31.745c-5.52 0-9.995 4.471-10 9.99-.012 12.248 3.235 24.354 9.387 35.004 6.144 10.656 15.007 19.523 25.633 25.642 4.8 2.764 10.903 1.094 13.65-3.666l15.872-27.49c1.805.332 3.634.507 5.463.507 1.835 0 3.668-.176 5.477-.509l15.868 27.483c2.775 4.806 8.899 6.408 13.659 3.661 21.565-12.448 34.978-35.673 35.001-60.611.003-2.654-1.05-5.2-2.926-7.077-1.875-1.879-4.42-2.934-7.074-2.934zm-93.156 47.438c-4.008-3.553-7.442-7.752-10.145-12.439-2.705-4.684-4.624-9.755-5.698-14.999h20.729c.609 1.723 1.366 3.396 2.284 4.991.924 1.604 1.998 3.105 3.19 4.501zm38.157-28.779c-4.736 2.733-10.886 1.155-13.655-3.648-2.685-4.667-1.299-10.817 3.653-13.67 4.746-2.736 10.89-1.149 13.655 3.648 2.685 4.668 1.299 10.817-3.653 13.67zm.468-38.138c-3.616-.665-7.328-.664-10.941.003l-10.357-17.939c10.248-3.403 21.393-3.401 31.654.004zm27.682 66.897-10.357-17.938c2.386-2.798 4.242-6.013 5.472-9.49h20.708c-2.181 10.603-7.75 20.254-15.823 27.428z"
       id="path1316"
       style="fill:#b22222;fill-opacity:1" />
    <path
       d="m502 206h-10v-50c0-5.523-4.478-10-10-10s-10 4.477-10 10v50h-20v-30c0-5.523-4.478-10-10-10s-10 4.477-10 10v30h-10c-5.522 0-10 4.477-10 10v70h-30c-5.522 0-10 4.477-10 10v36.396c-4.504.344-8.977.918-13.401 1.722-4.476-16.787-6.712-32.367-6.601-38.315.096-5.517.656-11.671 1.667-18.289 1.791-11.693 4.929-24.642 9.326-38.486.965-3.04.423-6.358-1.461-8.932-1.883-2.574-4.881-4.095-8.07-4.095h-75.218c2.163-11.276 4.41-21.085 5.86-27.121 9.576-2.69 17.223-10.02 20.356-19.404 17.181-2.071 32.896-10.382 44.256-23.405 5.357 2.567 11.26 3.929 17.286 3.929 15.347 0 29.075-8.921 35.737-22.071 4.605 1.367 9.41 2.071 14.263 2.071 27.57 0 50-22.43 50-50s-22.43-50-50-50c-5.338 0-10.593.848-15.592 2.487-10.806-25.515-35.817-42.487-64.408-42.487-22.311 0-43.479 10.783-56.624 28.844-14.417 19.8-35.61 31.156-58.146 31.156h-35.23c-26.307 0-49.282 17.096-57.15 41.675-4.171-1.107-8.492-1.675-12.85-1.675-24.661 0-45.195 17.95-49.257 41.468-12.025 3.911-20.743 15.22-20.743 28.532 0 14.004 9.646 25.794 22.641 29.084 4.843 13.858 16.87 50.794 17.36 77.102.11 5.934-3.759 29.704-41.979 122.04-21.271 51.389-42.914 99.167-43.13 99.644-1.403 3.095-1.139 6.691.702 9.547s5.007 4.583 8.406 4.583h337c5.522 0 10-4.477 10-10s-4.478-10-10-10h-75v-20h220v20h-55c-5.522 0-10 4.477-10 10s4.478 10 10 10h65c5.522 0 10-4.477 10-10 0-11.426 0-266.758 0-286 0-5.523-4.478-10-10-10zm-161.927 40c-1.891 6.912-3.454 13.589-4.696 20h-62.869c.467-6.045 1.239-12.726 2.314-20zm-.807 93.199c-15.678 5.446-30.101 13.841-42.611 24.762-12.21-33.438-20.53-62.278-23.474-77.971h59.329c-.283 3.287-.456 6.445-.508 9.451-.175 9.283 2.864 27.156 7.264 43.758zm-223.266-219.199c5.339 0 10.573 1.416 15.14 4.095 2.955 1.734 6.591 1.834 9.637.267s5.077-4.585 5.384-7.997c1.861-20.731 18.989-36.365 39.839-36.365 18.953 0 35.439 13.453 39.199 31.988 1.099 5.414 6.376 8.911 11.789 7.812 5.413-1.098 8.91-6.376 7.813-11.789-2.218-10.929-7.39-20.672-14.566-28.485 25.552-2.647 48.986-16.492 65.31-38.912 9.395-12.907 24.518-20.614 40.455-20.614 21.245 0 39.72 13.112 46.886 32.562-10.677 9.421-16.886 22.93-16.886 37.438 0 5.523 4.478 10 10 10s10-4.477 10-10c0-16.678 13.523-30 30-30 16.542 0 30 13.458 30 30s-13.458 30-30 30c-5.376 0-10.647-1.435-15.245-4.15-2.865-1.693-6.385-1.848-9.388-.417-3.004 1.432-5.099 4.264-5.588 7.555-1.443 9.699-9.946 17.012-19.779 17.012-4.813 0-9.469-1.738-13.109-4.896-4.577-3.968-11.624-2.987-14.935 2.105-7.792 11.986-20.111 19.892-33.923 22.123-4.31-11.289-15.247-19.332-28.033-19.332h-188.28c4.128-11.639 15.244-20 28.28-20zm-40 60c-5.514 0-10-4.486-10-10s4.486-10 10-10h200c5.514 0 10 4.486 10 10s-4.486 10-10 10zm176 312h-40v-10c0-5.514 4.486-10 10-10h30zm.39-40h-30.39c-16.542 0-30 13.458-30 30v10h-166.562c8.046-18.083 22.628-51.253 37.045-86.08 43.96-106.197 43.625-124.192 43.515-130.106-.471-25.3-9.951-57.78-15.908-75.824h173.197c-5.153 22.411-10.858 52.769-11.285 75.828-.001.038.002.082.001.12 0 .021-.003.041-.003.062 0 .031.004.061.005.091-.153 16.999 14.221 63.899 29.228 103.789-16.788 20.561-26.815 45.689-28.843 72.12zm20.064 0c5.106-56.24 52.276-100 109.546-100 57.283 0 104.471 44.015 109.541 100zm219.546-166h-10c-5.522 0-10 4.477-10 10s4.478 10 10 10h10v20h-10c-5.522 0-10 4.477-10 10s4.478 10 10 10h10v46.796c-21.369-33.845-57.91-57.199-100-60.416v-26.38h30c5.522 0 10-4.477 10-10v-30h60zm0-40h-60v-20h60z"
       id="path1318"
       style="fill:#b22222;fill-opacity:1" />
    <circle
       cx="392"
       cy="502"
       r="10"
       id="circle1320"
       style="fill:#b22222;fill-opacity:1" />
  </g>
</svg>
